<?xml version="1.0" standalone="no"?><svg xmlns="http://www.w3.org/2000/svg" viewBox="0 0 1440 320"><path fill="#000000" fill-opacity="1" d="M0,0L26.7,32C53.3,64,107,128,160,133.3C213.3,139,267,85,320,85.3C373.3,85,427,139,480,176C533.3,213,587,235,640,213.3C693.3,192,747,128,800,117.3C853.3,107,907,149,960,181.3C1013.3,213,1067,235,1120,240C1173.3,245,1227,235,1280,192C1333.3,149,1387,75,1413,37.3L1440,0L1440,320L1413.3,320C1386.7,320,1333,320,1280,320C1226.7,320,1173,320,1120,320C1066.7,320,1013,320,960,320C906.7,320,853,320,800,320C746.7,320,693,320,640,320C586.7,320,533,320,480,320C426.7,320,373,320,320,320C266.7,320,213,320,160,320C106.7,320,53,320,27,320L0,320Z"></path></svg>